# xmcd CD database file
#
# Track frame offsets:
#	150
#	27779
#	51909
#	78486
#	106977
#	139353
#	157661
#	188111
#
# Disc length: 2828 seconds
#
# Revision: 1
# Processed by: cddbd v1.5.2PL0 Copyright (c) Steve Scherf et al.
# Submitted via: CDex 1.51
#
DISCID=5f0b0a08
DTITLE=Sonora Ponceña - On Target
DYEAR=2007
DGENRE=Salsa
TTITLE0=No Vale La Pena
TTITLE1=Soa Jibaro
TTITLE2=Tanenbaum A La Lucca
TTITLE3=Fea
TTITLE4=Congo Caravali
TTITLE5=Para Eso Es La Amistad (That's What Friends Are For)
TTITLE6=Percusion
TTITLE7=Celoso
EXTD=YEAR: 2007
EXTT0=
EXTT1=
EXTT2=
EXTT3=
EXTT4=
EXTT5=
EXTT6=
EXTT7=
PLAYORDER=
